<svg width="83" height="83" viewBox="0 0 83 83" fill="none" xmlns="http://www.w3.org/2000/svg">
<circle cx="41.1789" cy="41.1789" r="41.1789" fill="#008080"/>
<path d="M67.3379 27.3091C65.0257 22.4956 61.338 18.4758 56.7412 15.7581C52.1444 13.0404 46.8449 11.7468 41.5129 12.041C36.1809 12.3352 31.0559 14.2038 26.786 17.4107C22.516 20.6176 19.2929 25.0187 17.5242 30.0573C15.7555 35.096 15.5207 40.546 16.8494 45.7182C18.1781 50.8903 24.1274 54.5 30.6274 57.5C34.6057 61.0623 49.5333 69.2483 54.8202 70C60.1071 70.7517 32.5002 47.5 58.0002 43.5H32.5002C30.1625 44.623 43.722 52.3475 41.1544 51.9824C38.5867 51.6173 36.1849 50.499 34.2528 48.769C32.3207 47.0389 30.945 44.7747 30.2997 42.2628C29.6544 39.7509 29.7684 37.104 30.6274 34.6569C31.4864 32.2098 33.0518 30.0723 35.1255 28.5149C37.1993 26.9574 39.6883 26.0498 42.2779 25.907C44.8674 25.7641 47.4412 26.3923 49.6737 27.7122C51.9062 29.0321 29.1767 17.6622 30.2997 20L67.3379 27.3091Z" fill="white"/>
</svg>
